<svg width="512" height="512" viewBox="0 0 512 512" xmlns="http://www.w3.org/2000/svg">
  <defs>
    <linearGradient id="grad1" x1="0%" y1="0%" x2="100%" y2="100%">
      <stop offset="0%" style="stop-color:#4285f4;stop-opacity:1" />
      <stop offset="100%" style="stop-color:#2563eb;stop-opacity:1" />
    </linearGradient>
    <filter id="shadow" x="-50%" y="-50%" width="200%" height="200%">
      <feDropShadow dx="2" dy="4" stdDeviation="3" flood-color="rgba(0,0,0,0.3)"/>
    </filter>
  </defs>
  <rect width="512" height="512" rx="96" fill="url(#grad1)"/>
  
  <!-- Motorcycle detailed illustration -->
  <g transform="translate(256,256)" filter="url(#shadow)">
    <!-- Wheels with detail -->
    <circle cx="-100" cy="80" r="48" fill="white" opacity="0.95"/>
    <circle cx="100" cy="80" r="48" fill="white" opacity="0.95"/>
    <circle cx="-100" cy="80" r="24" fill="#4285f4" opacity="0.8"/>
    <circle cx="100" cy="80" r="24" fill="#4285f4" opacity="0.8"/>
    <circle cx="-100" cy="80" r="12" fill="white"/>
    <circle cx="100" cy="80" r="12" fill="white"/>
    
    <!-- Spokes -->
    <g opacity="0.6">
      <path d="M-100 56 L-100 104 M-124 80 L-76 80 M-117 63 L-83 97 M-83 63 L-117 97" stroke="#4285f4" stroke-width="2"/>
      <path d="M100 56 L100 104 M76 80 L124 80 M83 63 L117 97 M117 63 L83 97" stroke="#4285f4" stroke-width="2"/>
    </g>
    
    <!-- Frame structure -->
    <path d="M-100 80 L-50 20 L50 20 L100 80" stroke="white" stroke-width="12" fill="none" stroke-linecap="round"/>
    <path d="M-50 20 L0 -40 L50 20" stroke="white" stroke-width="8" fill="none" stroke-linecap="round"/>
    <path d="M-100 80 L100 80" stroke="white" stroke-width="6" opacity="0.8"/>
    
    <!-- Seat -->
    <ellipse cx="0" cy="10" rx="40" ry="12" fill="white" opacity="0.9"/>
    
    <!-- Handlebar -->
    <path d="M-30 -40 L30 -40" stroke="white" stroke-width="8" stroke-linecap="round"/>
    <circle cx="-25" cy="-40" r="6" fill="white" opacity="0.8"/>
    <circle cx="25" cy="-40" r="6" fill="white" opacity="0.8"/>
    
    <!-- Front suspension -->
    <path d="M50 20 L50 60" stroke="white" stroke-width="6" stroke-linecap="round"/>
    
    <!-- Exhaust -->
    <path d="M-50 40 Q-30 50 0 45 Q30 40 50 45" stroke="white" stroke-width="4" fill="none" opacity="0.7"/>
  </g>
  
  <!-- Large prominent checkmark -->
  <g transform="translate(256,256)">
    <path d="M-60 -20 L-20 20 L80 -80" stroke="white" stroke-width="20" fill="none" stroke-linecap="round" stroke-linejoin="round" filter="url(#shadow)"/>
    <path d="M-60 -20 L-20 20 L80 -80" stroke="#00ff88" stroke-width="12" fill="none" stroke-linecap="round" stroke-linejoin="round"/>
  </g>
</svg>