<svg width="32" height="32" viewBox="0 0 32 32" xmlns="http://www.w3.org/2000/svg">
  <rect width="32" height="32" fill="black" rx="2"/>
  <g transform="translate(6, 4)">
    <rect x="0" y="3" width="20" height="22" rx="2" fill="white"/>
    <rect x="4" y="0" width="12" height="5" rx="2" fill="white"/>
    <rect x="5" y="1" width="10" height="3" rx="1" fill="black"/>
    <g fill="black">
      <circle cx="4" cy="9" r="1" fill="green"/>
      <circle cx="4" cy="12" r="1" fill="green"/>
      <circle cx="4" cy="15" r="1" fill="orange"/>
      <circle cx="4" cy="18" r="1" fill="green"/>
      <circle cx="4" cy="21" r="1" fill="red"/>
      <rect x="7" y="8" width="10" height="1" rx="0.5" fill="black"/>
      <rect x="7" y="11" width="8" height="1" rx="0.5" fill="black"/>
      <rect x="7" y="14" width="6" height="1" rx="0.5" fill="black"/>
      <rect x="7" y="17" width="9" height="1" rx="0.5" fill="black"/>
      <rect x="7" y="20" width="5" height="1" rx="0.5" fill="black"/>
    </g>
  </g>
</svg>