<svg width="512" height="512" viewBox="0 0 512 512" xmlns="http://www.w3.org/2000/svg">
  <rect width="512" height="512" fill="black" rx="50"/>
  <g transform="translate(128, 80)">
    <rect x="0" y="40" width="256" height="320" rx="20" fill="white"/>
    <rect x="52" y="0" width="152" height="60" rx="30" fill="white"/>
    <rect x="64" y="12" width="128" height="36" rx="18" fill="black"/>
    <g fill="black">
      <circle cx="48" cy="90" r="12" fill="#22c55e"/>
      <path d="M42 90 L47 95 L56 84" stroke="white" strokeWidth="5" strokeLinecap="round" strokeLinejoin="round" fill="none"/>
      <rect x="76" y="82" width="140" height="8" rx="4" fill="black"/>
      <circle cx="48" cy="130" r="12" fill="#22c55e"/>
      <path d="M42 130 L47 135 L56 124" stroke="white" strokeWidth="5" strokeLinecap="round" strokeLinejoin="round" fill="none"/>
      <rect x="76" y="122" width="120" height="8" rx="4" fill="black"/>
      <circle cx="48" cy="170" r="12" fill="#f59e0b"/>
      <path d="M42 170 L47 175 L56 164" stroke="white" strokeWidth="5" strokeLinecap="round" strokeLinejoin="round" fill="none"/>
      <rect x="76" y="162" width="100" height="8" rx="4" fill="black"/>
    </g>
  </g>
  <text x="256" y="440" textAnchor="middle" fill="white" fontFamily="Arial, sans-serif" fontSize="40" fontWeight="bold">CheckSystem</text>
</svg>